<?xml version="1.0" encoding="utf-8"?>
<!-- Generator: Adobe Illustrator 18.1.0, SVG Export Plug-In . SVG Version: 6.00 Build 0)  -->
<!DOCTYPE svg PUBLIC "-//W3C//DTD SVG 1.1//EN" "http://www.w3.org/Graphics/SVG/1.1/DTD/svg11.dtd">
<svg version="1.1" id="Layer_1" xmlns="http://www.w3.org/2000/svg" xmlns:xlink="http://www.w3.org/1999/xlink" x="0px" y="0px"
	 viewBox="0 0 100 80" enable-background="new 0 0 100 80" xml:space="preserve">
<g>
	<g>
		<line fill="none" stroke="#007B8B" stroke-width="1.1506" stroke-miterlimit="10" x1="54.6" y1="63.2" x2="54.6" y2="69.2"/>
		<line fill="none" stroke="#007B8B" stroke-width="1.1506" stroke-miterlimit="10" x1="44.3" y1="69.2" x2="44.3" y2="63.2"/>
		
			<line fill="none" stroke="#007B8B" stroke-width="1.1506" stroke-linecap="round" stroke-miterlimit="10" x1="63.8" y1="69.3" x2="35.1" y2="69.3"/>
		<path fill="none" stroke="#007B8B" stroke-width="1.1506" stroke-miterlimit="10" d="M73,63.3H9.4c-0.7,0-1.2-0.5-1.2-1.2V6.9
			c0-0.7,0.5-1.2,1.2-1.2h78.2c0.7,0,1.2,0.5,1.2,1.2v34.5"/>
		<polyline fill="none" stroke="#007B8B" stroke-width="0.5786" stroke-miterlimit="10" points="73.3,60 13,60 13,9 84,9 84,41.4 		
			"/>
		<g>
			<line fill="none" stroke="#007B8B" stroke-width="1.1506" stroke-miterlimit="10" x1="76.8" y1="9.2" x2="76.8" y2="41.3"/>
			<line fill="none" stroke="#007B8B" stroke-width="1.1506" stroke-miterlimit="10" x1="21.2" y1="59.8" x2="21.2" y2="9.2"/>
			<line fill="none" stroke="#007B8B" stroke-width="1.1506" stroke-miterlimit="10" x1="76.8" y1="27.5" x2="21.1" y2="27.5"/>
			<line fill="none" stroke="#007B8B" stroke-width="1.1506" stroke-miterlimit="10" x1="76.8" y1="13.8" x2="21.1" y2="13.8"/>
			<circle fill="none" stroke="#007B8B" stroke-width="0.5753" stroke-miterlimit="10" cx="23.8" cy="11.5" r="0.7"/>
			<circle fill="none" stroke="#007B8B" stroke-width="0.5753" stroke-miterlimit="10" cx="26.4" cy="11.5" r="0.7"/>
			<circle fill="none" stroke="#007B8B" stroke-width="0.5753" stroke-miterlimit="10" cx="29.1" cy="11.5" r="0.7"/>
			<rect x="24.3" y="30" fill="none" stroke="#007B8B" stroke-miterlimit="10" width="12.8" height="8.5"/>
			<line fill="none" stroke="#007B8B" stroke-miterlimit="10" x1="42" y1="24.2" x2="56" y2="24.2"/>
			<g>
				<polygon fill="#007B8B" points="50.3,17.4 48.3,17.4 47.7,19.2 48.8,20.1 48.1,21.7 50.3,19.7 49.6,19 50.3,17.4 				"/>
			</g>
			<line fill="none" stroke="#007B8B" stroke-miterlimit="10" x1="24" y1="41.2" x2="34" y2="41.2"/>
			<rect x="42.9" y="30" fill="none" stroke="#007B8B" stroke-miterlimit="10" width="12.8" height="8.5"/>
			<line fill="none" stroke="#007B8B" stroke-linecap="square" stroke-miterlimit="10" x1="43" y1="41.2" x2="53" y2="41.2"/>
			<rect x="61.4" y="30" fill="none" stroke="#007B8B" stroke-miterlimit="10" width="12.8" height="8.5"/>
			<line fill="none" stroke="#007B8B" stroke-miterlimit="10" x1="61" y1="41.2" x2="73" y2="41.2"/>
			<rect x="24.3" y="45" fill="none" stroke="#007B8B" stroke-miterlimit="10" width="12.8" height="8.5"/>
			<line fill="none" stroke="#007B8B" stroke-linecap="square" stroke-miterlimit="10" x1="24" y1="56.2" x2="33" y2="56.2"/>
			<rect x="42.9" y="45" fill="none" stroke="#007B8B" stroke-miterlimit="10" width="12.8" height="8.5"/>
			<line fill="none" stroke="#007B8B" stroke-linecap="square" stroke-miterlimit="10" x1="43" y1="56.2" x2="53" y2="56.2"/>
			<polyline fill="none" stroke="#007B8B" stroke-miterlimit="10" points="73,53.4 61.4,53.4 61.4,45 72.7,45 			"/>
			<line fill="none" stroke="#007B8B" stroke-miterlimit="10" x1="61" y1="56.2" x2="72" y2="56.2"/>
		</g>
	</g>
	<g>
		<path fill="none" stroke="#007B8B" stroke-width="1.7258" stroke-miterlimit="10" d="M93.1,75H74.5c-0.8,0-1.4-0.6-1.4-1.4V42.9
			c0-0.8,0.6-1.4,1.4-1.4h18.6c0.8,0,1.4,0.6,1.4,1.4v30.7C94.5,74.4,93.9,75,93.1,75z"/>
		<rect x="75.3" y="44.3" fill="none" stroke="#007B8B" stroke-width="0.5753" stroke-miterlimit="10" width="17" height="28"/>
		<rect x="78.2" y="60.1" fill="none" stroke="#007B8B" stroke-miterlimit="10" width="11.7" height="7.8"/>
		<line fill="none" stroke="#007B8B" stroke-miterlimit="10" x1="79" y1="55.2" x2="88" y2="55.2"/>
		<g>
			<polygon fill="#007B8B" points="85.1,47.7 83,47.7 82.5,50 83.6,50.5 82.9,51.9 85.1,50.4 84.4,49.9 85.1,47.7 			"/>
		</g>
		<line fill="none" stroke="#007B8B" stroke-miterlimit="10" x1="78" y1="70.2" x2="88" y2="70.2"/>
		<g>
			<line fill="none" stroke="#007B8B" stroke-miterlimit="10" x1="77" y1="46.2" x2="78" y2="46.2"/>
		</g>
	</g>
	<line fill="none" stroke="#007B8B" stroke-miterlimit="10" x1="75" y1="58.2" x2="92" y2="58.2"/>
</g>
</svg>
