<?xml version="1.0" encoding="utf-8"?>
<!-- Generator: Adobe Illustrator 18.1.0, SVG Export Plug-In . SVG Version: 6.00 Build 0)  -->
<!DOCTYPE svg PUBLIC "-//W3C//DTD SVG 1.1//EN" "http://www.w3.org/Graphics/SVG/1.1/DTD/svg11.dtd">
<svg version="1.1" id="Layer_1" xmlns="http://www.w3.org/2000/svg" xmlns:xlink="http://www.w3.org/1999/xlink" x="0px" y="0px"
	 viewBox="0 0 100 80" enable-background="new 0 0 100 80" xml:space="preserve">
<g>
	<line fill="none" stroke="#813041" stroke-linecap="round" stroke-miterlimit="10" x1="1.5" y1="52" x2="1.5" y2="46"/>
	<line fill="none" stroke="#813041" stroke-linecap="round" stroke-miterlimit="10" x1="4.5" y1="54" x2="4.5" y2="47"/>
	<line fill="none" stroke="#813041" stroke-linecap="round" stroke-miterlimit="10" x1="8.5" y1="60" x2="8.5" y2="47"/>
	<line fill="none" stroke="#813041" stroke-linecap="round" stroke-miterlimit="10" x1="12.5" y1="56" x2="12.5" y2="47"/>
	<line fill="none" stroke="#813041" stroke-linecap="round" stroke-miterlimit="10" x1="15.5" y1="53" x2="15.5" y2="47"/>
	<line fill="none" stroke="#813041" stroke-linecap="round" stroke-miterlimit="10" x1="19.5" y1="53" x2="19.5" y2="47"/>
	<line fill="none" stroke="#813041" stroke-linecap="round" stroke-miterlimit="10" x1="23.5" y1="54" x2="23.5" y2="47"/>
	<line fill="none" stroke="#813041" stroke-linecap="round" stroke-miterlimit="10" x1="27.5" y1="55" x2="27.5" y2="47"/>
	<line fill="none" stroke="#813041" stroke-linecap="round" stroke-miterlimit="10" x1="31.5" y1="55" x2="31.5" y2="47"/>
	<line fill="none" stroke="#813041" stroke-linecap="round" stroke-miterlimit="10" x1="35.5" y1="57" x2="35.5" y2="47"/>
	<line fill="none" stroke="#813041" stroke-linecap="round" stroke-miterlimit="10" x1="38.5" y1="58" x2="38.5" y2="47"/>
	<line fill="none" stroke="#813041" stroke-linecap="round" stroke-miterlimit="10" x1="42.5" y1="62" x2="42.5" y2="47"/>
	<line fill="none" stroke="#813041" stroke-linecap="round" stroke-miterlimit="10" x1="46.5" y1="66" x2="46.5" y2="47"/>
	<line fill="none" stroke="#813041" stroke-miterlimit="10" x1="50.5" y1="70" x2="50.5" y2="47"/>
	<line fill="none" stroke="#813041" stroke-linecap="round" stroke-miterlimit="10" x1="53.5" y1="65" x2="53.5" y2="58"/>
	<polyline fill="none" stroke="#813041" stroke-linecap="round" stroke-linejoin="round" stroke-miterlimit="10" points="55.9,61.6 
		50.5,70 38.5,58.3 34.9,57.6 30.7,54.4 27.1,55.6 19.6,53 16,52.7 8.2,60.9 4.6,53.7 1.5,52 	"/>
	<g>
		<g>
			<line fill="none" stroke="#813041" stroke-linecap="round" stroke-miterlimit="10" x1="1.5" y1="33" x2="1.5" y2="34"/>
			
				<line fill="none" stroke="#813041" stroke-linecap="round" stroke-miterlimit="10" stroke-dasharray="2,2" x1="1.5" y1="36" x2="1.5" y2="43"/>
			<line fill="none" stroke="#813041" stroke-linecap="round" stroke-miterlimit="10" x1="1.5" y1="45" x2="1.5" y2="46"/>
		</g>
	</g>
	<g>
		<g>
			<line fill="none" stroke="#813041" stroke-linecap="round" stroke-miterlimit="10" x1="4.5" y1="27" x2="4.5" y2="28"/>
			
				<line fill="none" stroke="#813041" stroke-linecap="round" stroke-miterlimit="10" stroke-dasharray="3,3" x1="4.5" y1="31" x2="4.5" y2="45"/>
			<line fill="none" stroke="#813041" stroke-linecap="round" stroke-miterlimit="10" x1="4.5" y1="47" x2="4.5" y2="48"/>
		</g>
	</g>
	<g>
		<g>
			<line fill="none" stroke="#813041" stroke-linecap="round" stroke-miterlimit="10" x1="8.5" y1="31" x2="8.5" y2="32"/>
			
				<line fill="none" stroke="#813041" stroke-linecap="round" stroke-miterlimit="10" stroke-dasharray="3,3" x1="8.5" y1="35" x2="8.5" y2="44"/>
			<line fill="none" stroke="#813041" stroke-linecap="round" stroke-miterlimit="10" x1="8.5" y1="46" x2="8.5" y2="47"/>
		</g>
	</g>
	<g>
		<g>
			<line fill="none" stroke="#813041" stroke-linecap="round" stroke-miterlimit="10" x1="12.5" y1="34" x2="12.5" y2="36"/>
			
				<line fill="none" stroke="#813041" stroke-linecap="round" stroke-miterlimit="10" stroke-dasharray="3,3" x1="12.5" y1="39" x2="12.5" y2="44"/>
			<line fill="none" stroke="#813041" stroke-linecap="round" stroke-miterlimit="10" x1="12.5" y1="46" x2="12.5" y2="47"/>
		</g>
	</g>
	<g>
		<g>
			<line fill="none" stroke="#813041" stroke-linecap="round" stroke-miterlimit="10" x1="15.5" y1="37" x2="15.5" y2="39"/>
			
				<line fill="none" stroke="#813041" stroke-linecap="round" stroke-miterlimit="10" stroke-dasharray="3,3" x1="15.5" y1="41" x2="15.5" y2="45"/>
			<line fill="none" stroke="#813041" stroke-linecap="round" stroke-miterlimit="10" x1="15.5" y1="47" x2="15.5" y2="48"/>
		</g>
	</g>
	<g>
		<g>
			<line fill="none" stroke="#813041" stroke-linecap="round" stroke-miterlimit="10" x1="19.5" y1="34" x2="19.5" y2="36"/>
			
				<line fill="none" stroke="#813041" stroke-linecap="round" stroke-miterlimit="10" stroke-dasharray="2,2" x1="19.5" y1="38" x2="19.5" y2="45"/>
			<line fill="none" stroke="#813041" stroke-linecap="round" stroke-miterlimit="10" x1="19.5" y1="47" x2="19.5" y2="48"/>
		</g>
	</g>
	<g>
		<g>
			<line fill="none" stroke="#813041" stroke-linecap="round" stroke-miterlimit="10" x1="23.5" y1="17" x2="23.5" y2="18"/>
			
				<line fill="none" stroke="#813041" stroke-linecap="round" stroke-miterlimit="10" stroke-dasharray="3,3" x1="23.5" y1="20" x2="23.5" y2="45"/>
			<line fill="none" stroke="#813041" stroke-linecap="round" stroke-miterlimit="10" x1="23.5" y1="47" x2="23.5" y2="48"/>
		</g>
	</g>
	<g>
		<g>
			<line fill="none" stroke="#813041" stroke-linecap="round" stroke-miterlimit="10" x1="27.5" y1="3" x2="27.5" y2="4"/>
			
				<line fill="none" stroke="#813041" stroke-linecap="round" stroke-miterlimit="10" stroke-dasharray="2,2" x1="27.5" y1="7" x2="27.5" y2="45"/>
			<line fill="none" stroke="#813041" stroke-linecap="round" stroke-miterlimit="10" x1="27.5" y1="47" x2="27.5" y2="48"/>
		</g>
	</g>
	<g>
		<g>
			<line fill="none" stroke="#813041" stroke-linecap="round" stroke-miterlimit="10" x1="31.5" y1="14" x2="31.5" y2="16"/>
			
				<line fill="none" stroke="#813041" stroke-linecap="round" stroke-miterlimit="10" stroke-dasharray="3,3" x1="31.5" y1="19" x2="31.5" y2="45"/>
			<line fill="none" stroke="#813041" stroke-linecap="round" stroke-miterlimit="10" x1="31.5" y1="47" x2="31.5" y2="48"/>
		</g>
	</g>
	<g>
		<g>
			<line fill="none" stroke="#813041" stroke-linecap="round" stroke-miterlimit="10" x1="35.5" y1="22" x2="35.5" y2="23"/>
			
				<line fill="none" stroke="#813041" stroke-linecap="round" stroke-miterlimit="10" stroke-dasharray="3,3" x1="35.5" y1="25" x2="35.5" y2="45"/>
			<line fill="none" stroke="#813041" stroke-linecap="round" stroke-miterlimit="10" x1="35.5" y1="47" x2="35.5" y2="48"/>
		</g>
	</g>
	<g>
		<g>
			<line fill="none" stroke="#813041" stroke-linecap="round" stroke-miterlimit="10" x1="38.5" y1="28" x2="38.5" y2="30"/>
			
				<line fill="none" stroke="#813041" stroke-linecap="round" stroke-miterlimit="10" stroke-dasharray="2,2" x1="38.5" y1="32" x2="38.5" y2="45"/>
			<line fill="none" stroke="#813041" stroke-linecap="round" stroke-miterlimit="10" x1="38.5" y1="47" x2="38.5" y2="48"/>
		</g>
	</g>
	<g>
		<g>
			<line fill="none" stroke="#813041" stroke-linecap="round" stroke-miterlimit="10" x1="42.5" y1="32" x2="42.5" y2="34"/>
			
				<line fill="none" stroke="#813041" stroke-linecap="round" stroke-miterlimit="10" stroke-dasharray="3,3" x1="42.5" y1="36" x2="42.5" y2="45"/>
			<line fill="none" stroke="#813041" stroke-linecap="round" stroke-miterlimit="10" x1="42.5" y1="47" x2="42.5" y2="48"/>
		</g>
	</g>
	<g>
		<g>
			<line fill="none" stroke="#813041" stroke-linecap="round" stroke-miterlimit="10" x1="46.5" y1="35" x2="46.5" y2="37"/>
			
				<line fill="none" stroke="#813041" stroke-linecap="round" stroke-miterlimit="10" stroke-dasharray="3,3" x1="46.5" y1="40" x2="46.5" y2="44"/>
			<line fill="none" stroke="#813041" stroke-linecap="round" stroke-miterlimit="10" x1="46.5" y1="46" x2="46.5" y2="47"/>
		</g>
	</g>
	<g>
		<g>
			<line fill="none" stroke="#813041" stroke-linecap="round" stroke-miterlimit="10" x1="50.5" y1="31" x2="50.5" y2="32"/>
			
				<line fill="none" stroke="#813041" stroke-linecap="round" stroke-miterlimit="10" stroke-dasharray="3,3" x1="50.5" y1="35" x2="50.5" y2="45"/>
			<line fill="none" stroke="#813041" stroke-linecap="round" stroke-miterlimit="10" x1="50.5" y1="47" x2="50.5" y2="48"/>
		</g>
	</g>
	<g>
		<g>
			<line fill="none" stroke="#813041" stroke-linecap="round" stroke-miterlimit="10" x1="53.5" y1="28" x2="53.5" y2="29"/>
			
				<line fill="none" stroke="#813041" stroke-linecap="round" stroke-miterlimit="10" stroke-dasharray="2,2" x1="53.5" y1="31" x2="53.5" y2="33"/>
			<line fill="none" stroke="#813041" stroke-linecap="round" stroke-miterlimit="10" x1="53.5" y1="34" x2="53.5" y2="35"/>
		</g>
	</g>
	<g>
		<g>
			<line fill="none" stroke="#813041" stroke-linecap="round" stroke-miterlimit="10" x1="72.5" y1="15" x2="72.5" y2="16"/>
			
				<line fill="none" stroke="#813041" stroke-linecap="round" stroke-miterlimit="10" stroke-dasharray="2,2" x1="72.5" y1="18" x2="72.5" y2="21"/>
			<line fill="none" stroke="#813041" stroke-linecap="round" stroke-miterlimit="10" x1="72.5" y1="21" x2="72.5" y2="23"/>
		</g>
	</g>
	
		<polyline fill="none" stroke="#813041" stroke-width="1.5" stroke-linecap="round" stroke-linejoin="round" stroke-miterlimit="10" points="
		66.3,24.4 72,14 75.1,23.1 	"/>
	
		<polyline fill="none" stroke="#813041" stroke-width="1.5" stroke-linecap="round" stroke-linejoin="round" stroke-miterlimit="10" points="
		1.5,33.2 4.5,26.1 16,37.5 19.9,32.2 27.1,1.7 38.8,28.3 47,35.5 53.1,27.1 56.4,30 	"/>
	<line fill="none" stroke="#813041" stroke-linecap="round" stroke-miterlimit="10" x1="2" y1="47.5" x2="51" y2="47.5"/>
	<circle fill="none" stroke="#813041" stroke-width="1.9538" stroke-miterlimit="10" cx="74.7" cy="46.9" r="24.2"/>
	<g>
		<defs>
			<circle id="SVGID_7_" cx="74.4" cy="46.9" r="24.2"/>
		</defs>
		<clipPath id="SVGID_2_">
			<use xlink:href="#SVGID_7_"  overflow="visible"/>
		</clipPath>
		<line clip-path="url(#SVGID_2_)" fill="none" stroke="#813041" stroke-miterlimit="10" x1="42.5" y1="80" x2="42.5" y2="47"/>
		<line clip-path="url(#SVGID_2_)" fill="none" stroke="#813041" stroke-miterlimit="10" x1="48.5" y1="70" x2="48.5" y2="47"/>
		<line clip-path="url(#SVGID_2_)" fill="none" stroke="#813041" stroke-miterlimit="10" x1="53.5" y1="63" x2="53.5" y2="47"/>
		
			<line clip-path="url(#SVGID_2_)" fill="none" stroke="#813041" stroke-linecap="round" stroke-miterlimit="10" x1="58.5" y1="58" x2="58.5" y2="47"/>
		
			<line clip-path="url(#SVGID_2_)" fill="none" stroke="#813041" stroke-linecap="round" stroke-miterlimit="10" x1="64.5" y1="56" x2="64.5" y2="47"/>
		<line clip-path="url(#SVGID_2_)" fill="none" stroke="#813041" stroke-miterlimit="10" x1="70.5" y1="58" x2="70.5" y2="47"/>
		
			<line clip-path="url(#SVGID_2_)" fill="none" stroke="#813041" stroke-linecap="round" stroke-miterlimit="10" x1="75.5" y1="56" x2="75.5" y2="47"/>
		<line clip-path="url(#SVGID_2_)" fill="none" stroke="#813041" stroke-miterlimit="10" x1="81.5" y1="55" x2="81.5" y2="47"/>
		<line clip-path="url(#SVGID_2_)" fill="none" stroke="#813041" stroke-miterlimit="10" x1="87.5" y1="62" x2="87.5" y2="47"/>
		<line clip-path="url(#SVGID_2_)" fill="none" stroke="#813041" stroke-miterlimit="10" x1="93.5" y1="56" x2="93.5" y2="47"/>
		<line clip-path="url(#SVGID_2_)" fill="none" stroke="#813041" stroke-miterlimit="10" x1="99.5" y1="52" x2="99.5" y2="47"/>
		<polyline clip-path="url(#SVGID_2_)" fill="none" stroke="#813041" stroke-width="1.5" stroke-miterlimit="10" points="
			109.6,47.4 106.1,49.4 93.5,56 87.7,62.2 81.5,55 70.6,58.6 66.1,57.2 60.2,55.8 43.4,80.3 26.1,62.4 20.7,61.3 14.4,56.4 
			8.9,58.3 -2.5,54.4 -8,53.9 -19.8,66.2 -25.2,55.3 -30.6,52.4 -30.7,45.5 		"/>
		<g clip-path="url(#SVGID_2_)">
			<g>
				<line fill="none" stroke="#813041" stroke-linecap="round" stroke-miterlimit="10" x1="43.5" y1="21" x2="43.5" y2="22"/>
				
					<line fill="none" stroke="#813041" stroke-linecap="round" stroke-miterlimit="10" stroke-dasharray="3,3" x1="43.5" y1="25" x2="43.5" y2="44"/>
				<line fill="none" stroke="#813041" stroke-linecap="round" stroke-miterlimit="10" x1="43.5" y1="45" x2="43.5" y2="46"/>
			</g>
		</g>
		<g clip-path="url(#SVGID_2_)">
			<g>
				<line fill="none" stroke="#813041" stroke-linecap="round" stroke-miterlimit="10" x1="49.5" y1="15" x2="49.5" y2="16"/>
				
					<line fill="none" stroke="#813041" stroke-linecap="round" stroke-miterlimit="10" stroke-dasharray="3,3" x1="49.5" y1="19" x2="49.5" y2="44"/>
				<line fill="none" stroke="#813041" stroke-linecap="round" stroke-miterlimit="10" x1="49.5" y1="45" x2="49.5" y2="46"/>
			</g>
		</g>
		<g clip-path="url(#SVGID_2_)">
			<g>
				<line fill="none" stroke="#813041" stroke-linecap="round" stroke-miterlimit="10" x1="53.5" y1="23" x2="53.5" y2="24"/>
				
					<line fill="none" stroke="#813041" stroke-linecap="round" stroke-miterlimit="10" stroke-dasharray="3,3" x1="53.5" y1="27" x2="53.5" y2="47"/>
				<line fill="none" stroke="#813041" stroke-linecap="round" stroke-miterlimit="10" x1="53.5" y1="48" x2="53.5" y2="49"/>
			</g>
		</g>
		<g clip-path="url(#SVGID_2_)">
			<g>
				<line fill="none" stroke="#813041" stroke-linecap="round" stroke-miterlimit="10" x1="58.5" y1="26" x2="58.5" y2="27"/>
				
					<line fill="none" stroke="#813041" stroke-linecap="round" stroke-miterlimit="10" stroke-dasharray="3,3" x1="58.5" y1="30" x2="58.5" y2="46"/>
				<line fill="none" stroke="#813041" stroke-linecap="round" stroke-miterlimit="10" x1="58.5" y1="47" x2="58.5" y2="48"/>
			</g>
		</g>
		<g clip-path="url(#SVGID_2_)">
			<g>
				<line fill="none" stroke="#813041" stroke-linecap="round" stroke-miterlimit="10" x1="64.5" y1="17" x2="64.5" y2="18"/>
				
					<line fill="none" stroke="#813041" stroke-linecap="round" stroke-miterlimit="10" stroke-dasharray="2,2" x1="64.5" y1="21" x2="64.5" y2="44"/>
				<line fill="none" stroke="#813041" stroke-linecap="round" stroke-miterlimit="10" x1="64.5" y1="45" x2="64.5" y2="46"/>
			</g>
		</g>
		<g clip-path="url(#SVGID_2_)">
			<g>
				<line fill="none" stroke="#813041" stroke-linecap="round" stroke-miterlimit="10" x1="70.5" y1="4" x2="70.5" y2="5"/>
				
					<line fill="none" stroke="#813041" stroke-linecap="round" stroke-miterlimit="10" stroke-dasharray="3,3" x1="70.5" y1="8" x2="70.5" y2="45"/>
				<line fill="none" stroke="#813041" stroke-linecap="round" stroke-miterlimit="10" x1="70.5" y1="46" x2="70.5" y2="47"/>
			</g>
		</g>
		<g clip-path="url(#SVGID_2_)">
			<g>
				<line fill="none" stroke="#813041" stroke-linecap="round" stroke-miterlimit="10" x1="75.5" y1="23" x2="75.5" y2="24"/>
				
					<line fill="none" stroke="#813041" stroke-linecap="round" stroke-miterlimit="10" stroke-dasharray="3,3" x1="75.5" y1="27" x2="75.5" y2="47"/>
				<line fill="none" stroke="#813041" stroke-linecap="round" stroke-miterlimit="10" x1="75.5" y1="48" x2="75.5" y2="50"/>
			</g>
		</g>
		<g clip-path="url(#SVGID_2_)">
			<g>
				<line fill="none" stroke="#813041" stroke-linecap="round" stroke-miterlimit="10" x1="81.5" y1="12" x2="81.5" y2="13"/>
				
					<line fill="none" stroke="#813041" stroke-linecap="round" stroke-miterlimit="10" stroke-dasharray="3,3" x1="81.5" y1="16" x2="81.5" y2="45"/>
				<line fill="none" stroke="#813041" stroke-linecap="round" stroke-miterlimit="10" x1="81.5" y1="46" x2="81.5" y2="47"/>
			</g>
		</g>
		<g clip-path="url(#SVGID_2_)">
			<g>
				<line fill="none" stroke="#813041" stroke-linecap="round" stroke-miterlimit="10" x1="87.5" y1="33" x2="87.5" y2="35"/>
				
					<line fill="none" stroke="#813041" stroke-linecap="round" stroke-miterlimit="10" stroke-dasharray="2,2" x1="87.5" y1="37" x2="87.5" y2="44"/>
				<line fill="none" stroke="#813041" stroke-linecap="round" stroke-miterlimit="10" x1="87.5" y1="45" x2="87.5" y2="46"/>
			</g>
		</g>
		<g clip-path="url(#SVGID_2_)">
			<g>
				<line fill="none" stroke="#813041" stroke-linecap="round" stroke-miterlimit="10" x1="93.5" y1="24" x2="93.5" y2="25"/>
				
					<line fill="none" stroke="#813041" stroke-linecap="round" stroke-miterlimit="10" stroke-dasharray="2,2" x1="93.5" y1="27" x2="93.5" y2="45"/>
				<line fill="none" stroke="#813041" stroke-linecap="round" stroke-miterlimit="10" x1="93.5" y1="46" x2="93.5" y2="47"/>
			</g>
		</g>
		<g clip-path="url(#SVGID_2_)">
			<g>
				<line fill="none" stroke="#813041" stroke-linecap="round" stroke-miterlimit="10" x1="100.5" y1="21" x2="100.5" y2="22"/>
				
					<line fill="none" stroke="#813041" stroke-linecap="round" stroke-miterlimit="10" stroke-dasharray="3,3" x1="100.5" y1="25" x2="100.5" y2="44"/>
				<line fill="none" stroke="#813041" stroke-linecap="round" stroke-miterlimit="10" x1="100.5" y1="45" x2="100.5" y2="46"/>
			</g>
		</g>
		<polyline clip-path="url(#SVGID_2_)" fill="none" stroke="#813041" stroke-width="1.3025" stroke-miterlimit="10" points="
			-30.9,24 -24.8,15 -8,30.7 -2,22.8 8.8,-32.5 26.6,16.8 37.5,27.7 48.3,15 60.2,25.7 69.8,-1 87.5,33.3 94.8,22.8 100.7,20.8 
			100.7,20.8 		"/>
		<line clip-path="url(#SVGID_2_)" fill="none" stroke="#813041" stroke-miterlimit="10" x1="-30" y1="47.5" x2="107" y2="47.5"/>
		<use xlink:href="#SVGID_7_"  overflow="visible" fill="none" stroke="#813041" stroke-width="2" stroke-miterlimit="10"/>
	</g>
	<polyline fill="none" stroke="#813041" stroke-width="1.9538" stroke-linejoin="round" stroke-miterlimit="10" points="80.9,71.1 
		84.2,78.4 91.5,74.8 87.3,67.5 	"/>
</g>
</svg>
