<?xml version="1.0" encoding="utf-8"?>
<!-- Generator: Adobe Illustrator 18.1.0, SVG Export Plug-In . SVG Version: 6.00 Build 0)  -->
<!DOCTYPE svg PUBLIC "-//W3C//DTD SVG 1.1//EN" "http://www.w3.org/Graphics/SVG/1.1/DTD/svg11.dtd">
<svg version="1.1" id="Layer_1" xmlns="http://www.w3.org/2000/svg" xmlns:xlink="http://www.w3.org/1999/xlink" x="0px" y="0px"
	 viewBox="0 0 100 80" enable-background="new 0 0 100 80" xml:space="preserve">
<ellipse fill="none" stroke="#5060A6" stroke-width="0.5503" stroke-miterlimit="10" cx="72.6" cy="10.9" rx="21.5" ry="5.8"/>
<path fill="none" stroke="#5060A6" stroke-miterlimit="10" d="M94.5,11v14.7v0.8c0,3.3-8.5,7.2-18.9,6.8"/>
<path fill="none" stroke="#5060A6" stroke-miterlimit="10" d="M94.5,27v16.4v0.8c0,3-8.3,6-19,6.5"/>
<path fill="none" stroke="#5060A6" stroke-miterlimit="10" d="M94.5,47v14.1v0.8c0,3.2-9,7.5-21.8,7.5c-9.3,0-16.5-1.9-19.6-4.4"/>
<path fill="none" stroke="#5060A6" stroke-width="1.1006" stroke-miterlimit="10" d="M51.1,16.2l0-5.3c0-3.2,9.6-5.8,21.5-5.8
	s21.5,2.6,21.5,5.8l-0.3,51c0,3.2-8.9,7.5-21.7,7.5c-9.2,0-16.4-2.1-19.5-4.6"/>
<g>
	<line fill="none" stroke="#5060A6" stroke-width="2" stroke-miterlimit="10" x1="48.1" y1="64.7" x2="48.1" y2="72.6"/>
	<line fill="none" stroke="#5060A6" stroke-width="2" stroke-miterlimit="10" x1="33.2" y1="72.6" x2="33.2" y2="64.7"/>
	<path fill="none" stroke="#5060A6" stroke-width="2" stroke-linecap="round" stroke-miterlimit="10" d="M55.1,72.6H26.2"/>
	<path fill="none" stroke="#5060A6" stroke-width="2" stroke-miterlimit="10" d="M74.3,64.7H5.9c-0.6,0-1-0.5-1-1V17.5
		c0-0.6,0.5-1,1-1h68.4c0.6,0,1,0.5,1,1v46.2C75.4,64.3,74.9,64.7,74.3,64.7z"/>
	<rect x="9.1" y="19.4" fill="none" stroke="#5060A6" stroke-miterlimit="10" width="61.3" height="42.7"/>
</g>
<polyline fill="none" stroke="#5060A6" stroke-miterlimit="10" points="51.4,41.5 54.2,31.5 44,28.8 46.4,33 31.8,41.4 34.3,45.9 
	49,37.4 51.4,41.6 36.8,50 39.2,54.2 29.3,51.5 31.9,41.5 "/>
</svg>
