<?xml version="1.0" encoding="utf-8"?>
<!-- Generator: Adobe Illustrator 18.1.0, SVG Export Plug-In . SVG Version: 6.00 Build 0)  -->
<!DOCTYPE svg PUBLIC "-//W3C//DTD SVG 1.1//EN" "http://www.w3.org/Graphics/SVG/1.1/DTD/svg11.dtd">
<svg version="1.1" id="Layer_1" xmlns="http://www.w3.org/2000/svg" xmlns:xlink="http://www.w3.org/1999/xlink" x="0px" y="0px"
	 viewBox="0 0 100 80" enable-background="new 0 0 100 80" xml:space="preserve">
<polygon fill="none" stroke="#933E61" stroke-width="2" stroke-linecap="round" stroke-linejoin="round" stroke-miterlimit="10" points="
	82,64 19,64 50.4,9.2 82,64 "/>
<line fill="none" stroke="#933E61" stroke-linecap="round" stroke-linejoin="round" stroke-miterlimit="10" x1="28" y1="47.5" x2="73" y2="47.5"/>
<line fill="none" stroke="#933E61" stroke-linecap="round" stroke-linejoin="round" stroke-miterlimit="10" x1="38" y1="31.5" x2="63" y2="31.5"/>
<g>
	<path fill="#933E61" d="M7.7,71c-0.8-1.3-1.1-3.4-1.1-6.2v-12c0-3-0.3-5.5-1-7.6c-0.7-2-2.1-3.8-4.3-5.2v-1.5
		c0.8-0.1,1.6-0.6,2.2-1.3c0.6-0.7,1.2-1.7,1.7-2.8c0.5-1.1,0.8-2.4,1.1-3.8c0.2-1.4,0.4-2.9,0.4-4.4V14c0-2.8,0.4-4.9,1.1-6.1
		C8.5,6.5,9.9,5.9,12,5.9h3.7v1.5h-3.6C10.6,7.4,9.6,7.9,9,9C8.3,10.1,8,12.2,8,15.3v12.1c0,1.1-0.1,2.2-0.3,3.5
		c-0.2,1.2-0.5,2.4-1,3.6c-0.4,1.1-1,2.1-1.7,3S3.6,39,2.7,39.4c1.6,0.8,2.9,2.3,3.9,4.5c1,2.2,1.4,4.8,1.4,7.6v11.9
		c0,1.6,0.1,3,0.3,4C8.5,68.5,8.7,69.4,9,70c0.3,0.6,0.7,1,1.3,1.2c0.5,0.2,1.1,0.3,1.8,0.3h3.6V73H12C9.9,73,8.5,72.3,7.7,71z"/>
	<path fill="#933E61" d="M93.1,7.9c0.8,1.3,1.1,3.4,1.1,6.2v12.1c0,3,0.3,5.5,1,7.6c0.7,2.1,2.1,3.8,4.3,5.2v1.5
		c-0.8,0.1-1.5,0.6-2.2,1.3c-0.7,0.7-1.2,1.7-1.7,2.8c-0.5,1.1-0.8,2.4-1.1,3.8c-0.2,1.4-0.4,2.9-0.4,4.4v12.1
		c0,2.8-0.4,4.9-1.1,6.1C92.4,72.3,91,73,88.9,73h-3.7v-1.5h3.6c1.5,0,2.5-0.6,3.1-1.7c0.6-1.1,0.9-3.2,0.9-6.3V51.5
		c0-1.1,0.1-2.2,0.3-3.5c0.2-1.2,0.5-2.4,1-3.6c0.4-1.1,1-2.1,1.7-3c0.7-0.9,1.5-1.5,2.4-1.9c-1.6-0.8-2.9-2.3-3.9-4.5
		c-1-2.2-1.4-4.8-1.4-7.6v-12c0-1.6-0.1-3-0.3-4c-0.2-1.1-0.4-1.9-0.7-2.5c-0.3-0.6-0.7-1-1.3-1.2c-0.5-0.2-1.1-0.3-1.8-0.3h-3.6
		V5.9h3.7C91,5.9,92.4,6.6,93.1,7.9z"/>
</g>
</svg>
